<svg xmlns="http://www.w3.org/2000/svg" xmlns:xlink="http://www.w3.org/1999/xlink" width="500" zoomAndPan="magnify" viewBox="0 0 375 374.999991" height="500" preserveAspectRatio="xMidYMid meet" version="1.0"><defs><g/><clipPath id="e60405157a"><path d="M 37.277344 37.390625 L 337.277344 37.390625 L 337.277344 337.390625 L 37.277344 337.390625 Z M 37.277344 37.390625 " clip-rule="nonzero"/></clipPath><clipPath id="2ab5a04965"><path d="M 187.382812 37.390625 C 104.484375 37.390625 37.277344 104.59375 37.277344 187.496094 C 37.277344 270.394531 104.484375 337.601562 187.382812 337.601562 C 270.285156 337.601562 337.488281 270.394531 337.488281 187.496094 C 337.488281 104.59375 270.285156 37.390625 187.382812 37.390625 Z M 187.382812 37.390625 " clip-rule="nonzero"/></clipPath><clipPath id="fccd8abced"><path d="M 159.417969 0 L 215.582031 0 L 215.582031 56.167969 L 159.417969 56.167969 Z M 159.417969 0 " clip-rule="nonzero"/></clipPath><clipPath id="134e81fc7d"><path d="M 176.667969 0 L 198.332031 0 C 202.910156 0 207.296875 1.816406 210.53125 5.050781 C 213.765625 8.289062 215.582031 12.675781 215.582031 17.25 L 215.582031 38.917969 C 215.582031 43.492188 213.765625 47.878906 210.53125 51.113281 C 207.296875 54.351562 202.910156 56.167969 198.332031 56.167969 L 176.667969 56.167969 C 172.089844 56.167969 167.703125 54.351562 164.46875 51.113281 C 161.234375 47.878906 159.417969 43.492188 159.417969 38.917969 L 159.417969 17.25 C 159.417969 12.675781 161.234375 8.289062 164.46875 5.050781 C 167.703125 1.816406 172.089844 0 176.667969 0 Z M 176.667969 0 " clip-rule="nonzero"/></clipPath><clipPath id="67d22407c3"><path d="M 159.417969 0 L 215.65625 0 L 215.65625 56.238281 L 159.417969 56.238281 Z M 159.417969 0 " clip-rule="nonzero"/></clipPath><clipPath id="7b10103443"><path d="M 176.664062 0 L 198.324219 0 C 202.898438 0 207.285156 1.816406 210.519531 5.050781 C 213.753906 8.285156 215.574219 12.671875 215.574219 17.246094 L 215.574219 38.910156 C 215.574219 43.484375 213.753906 47.871094 210.519531 51.105469 C 207.285156 54.339844 202.898438 56.15625 198.324219 56.15625 L 176.664062 56.15625 C 172.089844 56.15625 167.703125 54.339844 164.46875 51.105469 C 161.234375 47.871094 159.417969 43.484375 159.417969 38.910156 L 159.417969 17.246094 C 159.417969 12.671875 161.234375 8.285156 164.46875 5.050781 C 167.703125 1.816406 172.089844 0 176.664062 0 Z M 176.664062 0 " clip-rule="nonzero"/></clipPath><clipPath id="115d68f3f8"><path d="M 159.304688 318.832031 L 215.472656 318.832031 L 215.472656 375 L 159.304688 375 Z M 159.304688 318.832031 " clip-rule="nonzero"/></clipPath><clipPath id="d954789930"><path d="M 176.554688 318.832031 L 198.222656 318.832031 C 202.796875 318.832031 207.1875 320.648438 210.421875 323.886719 C 213.65625 327.121094 215.472656 331.507812 215.472656 336.082031 L 215.472656 357.75 C 215.472656 362.324219 213.65625 366.710938 210.421875 369.949219 C 207.1875 373.183594 202.796875 375 198.222656 375 L 176.554688 375 C 171.980469 375 167.59375 373.183594 164.359375 369.949219 C 161.125 366.710938 159.304688 362.324219 159.304688 357.75 L 159.304688 336.082031 C 159.304688 331.507812 161.125 327.121094 164.359375 323.886719 C 167.59375 320.648438 171.980469 318.832031 176.554688 318.832031 Z M 176.554688 318.832031 " clip-rule="nonzero"/></clipPath><clipPath id="5690d3deb3"><path d="M 159.304688 318.832031 L 215.546875 318.832031 L 215.546875 375 L 159.304688 375 Z M 159.304688 318.832031 " clip-rule="nonzero"/></clipPath><clipPath id="54f8c8cc5e"><path d="M 176.550781 318.832031 L 198.214844 318.832031 C 202.789062 318.832031 207.175781 320.648438 210.410156 323.882812 C 213.644531 327.117188 215.460938 331.503906 215.460938 336.078125 L 215.460938 357.742188 C 215.460938 362.316406 213.644531 366.703125 210.410156 369.9375 C 207.175781 373.171875 202.789062 374.988281 198.214844 374.988281 L 176.550781 374.988281 C 171.980469 374.988281 167.589844 373.171875 164.355469 369.9375 C 161.121094 366.703125 159.304688 362.316406 159.304688 357.742188 L 159.304688 336.078125 C 159.304688 331.503906 161.121094 327.117188 164.355469 323.882812 C 167.589844 320.648438 171.980469 318.832031 176.550781 318.832031 Z M 176.550781 318.832031 " clip-rule="nonzero"/></clipPath><clipPath id="2b9a094c03"><path d="M 0 159.417969 L 56.167969 159.417969 L 56.167969 215.582031 L 0 215.582031 Z M 0 159.417969 " clip-rule="nonzero"/></clipPath><clipPath id="36e34fda36"><path d="M 17.25 159.417969 L 38.917969 159.417969 C 43.492188 159.417969 47.878906 161.234375 51.113281 164.46875 C 54.351562 167.703125 56.167969 172.089844 56.167969 176.667969 L 56.167969 198.332031 C 56.167969 202.910156 54.351562 207.296875 51.113281 210.53125 C 47.878906 213.765625 43.492188 215.582031 38.917969 215.582031 L 17.25 215.582031 C 12.675781 215.582031 8.289062 213.765625 5.050781 210.53125 C 1.816406 207.296875 0 202.910156 0 198.332031 L 0 176.667969 C 0 172.089844 1.816406 167.703125 5.050781 164.46875 C 8.289062 161.234375 12.675781 159.417969 17.25 159.417969 Z M 17.25 159.417969 " clip-rule="nonzero"/></clipPath><clipPath id="e1b3fe7a92"><path d="M 0 159.417969 L 56.238281 159.417969 L 56.238281 215.65625 L 0 215.65625 Z M 0 159.417969 " clip-rule="nonzero"/></clipPath><clipPath id="ceab37fef7"><path d="M 17.246094 159.417969 L 38.910156 159.417969 C 43.484375 159.417969 47.871094 161.234375 51.105469 164.46875 C 54.339844 167.703125 56.15625 172.089844 56.15625 176.664062 L 56.15625 198.324219 C 56.15625 202.898438 54.339844 207.285156 51.105469 210.519531 C 47.871094 213.753906 43.484375 215.574219 38.910156 215.574219 L 17.246094 215.574219 C 12.671875 215.574219 8.285156 213.753906 5.050781 210.519531 C 1.816406 207.285156 0 202.898438 0 198.324219 L 0 176.664062 C 0 172.089844 1.816406 167.703125 5.050781 164.46875 C 8.285156 161.234375 12.671875 159.417969 17.246094 159.417969 Z M 17.246094 159.417969 " clip-rule="nonzero"/></clipPath><clipPath id="c63284a429"><path d="M 318.832031 159.417969 L 375 159.417969 L 375 215.582031 L 318.832031 215.582031 Z M 318.832031 159.417969 " clip-rule="nonzero"/></clipPath><clipPath id="99c0e8e448"><path d="M 336.082031 159.417969 L 357.75 159.417969 C 362.324219 159.417969 366.710938 161.234375 369.949219 164.46875 C 373.183594 167.703125 375 172.089844 375 176.667969 L 375 198.332031 C 375 202.910156 373.183594 207.296875 369.949219 210.53125 C 366.710938 213.765625 362.324219 215.582031 357.75 215.582031 L 336.082031 215.582031 C 331.507812 215.582031 327.121094 213.765625 323.886719 210.53125 C 320.648438 207.296875 318.832031 202.910156 318.832031 198.332031 L 318.832031 176.667969 C 318.832031 172.089844 320.648438 167.703125 323.886719 164.46875 C 327.121094 161.234375 331.507812 159.417969 336.082031 159.417969 Z M 336.082031 159.417969 " clip-rule="nonzero"/></clipPath><clipPath id="fc7e870ac8"><path d="M 318.832031 159.417969 L 375 159.417969 L 375 215.65625 L 318.832031 215.65625 Z M 318.832031 159.417969 " clip-rule="nonzero"/></clipPath><clipPath id="5169e6de1a"><path d="M 336.078125 159.417969 L 357.742188 159.417969 C 362.316406 159.417969 366.703125 161.234375 369.9375 164.46875 C 373.171875 167.703125 374.988281 172.089844 374.988281 176.664062 L 374.988281 198.324219 C 374.988281 202.898438 373.171875 207.285156 369.9375 210.519531 C 366.703125 213.753906 362.316406 215.574219 357.742188 215.574219 L 336.078125 215.574219 C 331.503906 215.574219 327.117188 213.753906 323.882812 210.519531 C 320.648438 207.285156 318.832031 202.898438 318.832031 198.324219 L 318.832031 176.664062 C 318.832031 172.089844 320.648438 167.703125 323.882812 164.46875 C 327.117188 161.234375 331.503906 159.417969 336.078125 159.417969 Z M 336.078125 159.417969 " clip-rule="nonzero"/></clipPath><clipPath id="8432d99b20"><path d="M 86.640625 28.082031 L 142.804688 28.082031 L 142.804688 84.25 L 86.640625 84.25 Z M 86.640625 28.082031 " clip-rule="nonzero"/></clipPath><clipPath id="465c616777"><path d="M 103.890625 28.082031 L 125.554688 28.082031 C 130.132812 28.082031 134.519531 29.902344 137.753906 33.136719 C 140.988281 36.371094 142.804688 40.757812 142.804688 45.332031 L 142.804688 67 C 142.804688 71.574219 140.988281 75.964844 137.753906 79.199219 C 134.519531 82.433594 130.132812 84.25 125.554688 84.25 L 103.890625 84.25 C 99.3125 84.25 94.925781 82.433594 91.691406 79.199219 C 88.457031 75.964844 86.640625 71.574219 86.640625 67 L 86.640625 45.332031 C 86.640625 40.757812 88.457031 36.371094 91.691406 33.136719 C 94.925781 29.902344 99.3125 28.082031 103.890625 28.082031 Z M 103.890625 28.082031 " clip-rule="nonzero"/></clipPath><clipPath id="3e647591fc"><path d="M 86.640625 28.082031 L 142.878906 28.082031 L 142.878906 84.324219 L 86.640625 84.324219 Z M 86.640625 28.082031 " clip-rule="nonzero"/></clipPath><clipPath id="450a6bf070"><path d="M 103.886719 28.082031 L 125.546875 28.082031 C 130.121094 28.082031 134.507812 29.902344 137.742188 33.136719 C 140.976562 36.371094 142.796875 40.757812 142.796875 45.332031 L 142.796875 66.992188 C 142.796875 71.566406 140.976562 75.953125 137.742188 79.1875 C 134.507812 82.421875 130.121094 84.238281 125.546875 84.238281 L 103.886719 84.238281 C 99.3125 84.238281 94.925781 82.421875 91.691406 79.1875 C 88.457031 75.953125 86.640625 71.566406 86.640625 66.992188 L 86.640625 45.332031 C 86.640625 40.757812 88.457031 36.371094 91.691406 33.136719 C 94.925781 29.902344 99.3125 28.082031 103.886719 28.082031 Z M 103.886719 28.082031 " clip-rule="nonzero"/></clipPath><clipPath id="5e58a76921"><path d="M 232.082031 281.441406 L 288.25 281.441406 L 288.25 337.609375 L 232.082031 337.609375 Z M 232.082031 281.441406 " clip-rule="nonzero"/></clipPath><clipPath id="3321dc6cef"><path d="M 249.332031 281.441406 L 271 281.441406 C 275.574219 281.441406 279.964844 283.261719 283.199219 286.496094 C 286.433594 289.730469 288.25 294.117188 288.25 298.691406 L 288.25 320.359375 C 288.25 324.933594 286.433594 329.324219 283.199219 332.558594 C 279.964844 335.792969 275.574219 337.609375 271 337.609375 L 249.332031 337.609375 C 244.757812 337.609375 240.371094 335.792969 237.136719 332.558594 C 233.902344 329.324219 232.082031 324.933594 232.082031 320.359375 L 232.082031 298.691406 C 232.082031 294.117188 233.902344 289.730469 237.136719 286.496094 C 240.371094 283.261719 244.757812 281.441406 249.332031 281.441406 Z M 249.332031 281.441406 " clip-rule="nonzero"/></clipPath><clipPath id="cc0588ad42"><path d="M 232.082031 281.441406 L 288.324219 281.441406 L 288.324219 337.683594 L 232.082031 337.683594 Z M 232.082031 281.441406 " clip-rule="nonzero"/></clipPath><clipPath id="70fc9d966b"><path d="M 249.332031 281.441406 L 270.992188 281.441406 C 275.566406 281.441406 279.953125 283.261719 283.1875 286.496094 C 286.421875 289.730469 288.238281 294.117188 288.238281 298.691406 L 288.238281 320.351562 C 288.238281 324.925781 286.421875 329.3125 283.1875 332.546875 C 279.953125 335.78125 275.566406 337.597656 270.992188 337.597656 L 249.332031 337.597656 C 244.757812 337.597656 240.371094 335.78125 237.136719 332.546875 C 233.902344 329.3125 232.082031 324.925781 232.082031 320.351562 L 232.082031 298.691406 C 232.082031 294.117188 233.902344 289.730469 237.136719 286.496094 C 240.371094 283.261719 244.757812 281.441406 249.332031 281.441406 Z M 249.332031 281.441406 " clip-rule="nonzero"/></clipPath><clipPath id="42ec4251d1"><path d="M 86.640625 281.441406 L 142.804688 281.441406 L 142.804688 337.609375 L 86.640625 337.609375 Z M 86.640625 281.441406 " clip-rule="nonzero"/></clipPath><clipPath id="f0b1fc70b7"><path d="M 103.890625 281.441406 L 125.554688 281.441406 C 130.132812 281.441406 134.519531 283.261719 137.753906 286.496094 C 140.988281 289.730469 142.804688 294.117188 142.804688 298.691406 L 142.804688 320.359375 C 142.804688 324.933594 140.988281 329.324219 137.753906 332.558594 C 134.519531 335.792969 130.132812 337.609375 125.554688 337.609375 L 103.890625 337.609375 C 99.3125 337.609375 94.925781 335.792969 91.691406 332.558594 C 88.457031 329.324219 86.640625 324.933594 86.640625 320.359375 L 86.640625 298.691406 C 86.640625 294.117188 88.457031 289.730469 91.691406 286.496094 C 94.925781 283.261719 99.3125 281.441406 103.890625 281.441406 Z M 103.890625 281.441406 " clip-rule="nonzero"/></clipPath><clipPath id="b889ecb0b1"><path d="M 86.640625 281.441406 L 142.878906 281.441406 L 142.878906 337.683594 L 86.640625 337.683594 Z M 86.640625 281.441406 " clip-rule="nonzero"/></clipPath><clipPath id="b0a83c09d3"><path d="M 103.886719 281.441406 L 125.546875 281.441406 C 130.121094 281.441406 134.507812 283.261719 137.742188 286.496094 C 140.976562 289.730469 142.796875 294.117188 142.796875 298.691406 L 142.796875 320.351562 C 142.796875 324.925781 140.976562 329.3125 137.742188 332.546875 C 134.507812 335.78125 130.121094 337.597656 125.546875 337.597656 L 103.886719 337.597656 C 99.3125 337.597656 94.925781 335.78125 91.691406 332.546875 C 88.457031 329.3125 86.640625 324.925781 86.640625 320.351562 L 86.640625 298.691406 C 86.640625 294.117188 88.457031 289.730469 91.691406 286.496094 C 94.925781 283.261719 99.3125 281.441406 103.886719 281.441406 Z M 103.886719 281.441406 " clip-rule="nonzero"/></clipPath><clipPath id="20e1de5760"><path d="M 232.082031 28.082031 L 288.25 28.082031 L 288.25 84.25 L 232.082031 84.25 Z M 232.082031 28.082031 " clip-rule="nonzero"/></clipPath><clipPath id="e05452e4cf"><path d="M 249.332031 28.082031 L 271 28.082031 C 275.574219 28.082031 279.964844 29.902344 283.199219 33.136719 C 286.433594 36.371094 288.25 40.757812 288.25 45.332031 L 288.25 67 C 288.25 71.574219 286.433594 75.964844 283.199219 79.199219 C 279.964844 82.433594 275.574219 84.25 271 84.25 L 249.332031 84.25 C 244.757812 84.25 240.371094 82.433594 237.136719 79.199219 C 233.902344 75.964844 232.082031 71.574219 232.082031 67 L 232.082031 45.332031 C 232.082031 40.757812 233.902344 36.371094 237.136719 33.136719 C 240.371094 29.902344 244.757812 28.082031 249.332031 28.082031 Z M 249.332031 28.082031 " clip-rule="nonzero"/></clipPath><clipPath id="c6610160f6"><path d="M 232.082031 28.082031 L 288.324219 28.082031 L 288.324219 84.324219 L 232.082031 84.324219 Z M 232.082031 28.082031 " clip-rule="nonzero"/></clipPath><clipPath id="a6ca2695ef"><path d="M 249.332031 28.082031 L 270.992188 28.082031 C 275.566406 28.082031 279.953125 29.902344 283.1875 33.136719 C 286.421875 36.371094 288.238281 40.757812 288.238281 45.332031 L 288.238281 66.992188 C 288.238281 71.566406 286.421875 75.953125 283.1875 79.1875 C 279.953125 82.421875 275.566406 84.238281 270.992188 84.238281 L 249.332031 84.238281 C 244.757812 84.238281 240.371094 82.421875 237.136719 79.1875 C 233.902344 75.953125 232.082031 71.566406 232.082031 66.992188 L 232.082031 45.332031 C 232.082031 40.757812 233.902344 36.371094 237.136719 33.136719 C 240.371094 29.902344 244.757812 28.082031 249.332031 28.082031 Z M 249.332031 28.082031 " clip-rule="nonzero"/></clipPath><clipPath id="dfeacbac52"><path d="M 28.082031 86.28125 L 84.25 86.28125 L 84.25 142.449219 L 28.082031 142.449219 Z M 28.082031 86.28125 " clip-rule="nonzero"/></clipPath><clipPath id="592e03a9d5"><path d="M 45.332031 86.28125 L 67 86.28125 C 71.574219 86.28125 75.964844 88.097656 79.199219 91.335938 C 82.433594 94.570312 84.25 98.957031 84.25 103.53125 L 84.25 125.199219 C 84.25 129.773438 82.433594 134.160156 79.199219 137.398438 C 75.964844 140.632812 71.574219 142.449219 67 142.449219 L 45.332031 142.449219 C 40.757812 142.449219 36.371094 140.632812 33.136719 137.398438 C 29.902344 134.160156 28.082031 129.773438 28.082031 125.199219 L 28.082031 103.53125 C 28.082031 98.957031 29.902344 94.570312 33.136719 91.335938 C 36.371094 88.097656 40.757812 86.28125 45.332031 86.28125 Z M 45.332031 86.28125 " clip-rule="nonzero"/></clipPath><clipPath id="2e03e26067"><path d="M 28.082031 86.28125 L 84.324219 86.28125 L 84.324219 142.519531 L 28.082031 142.519531 Z M 28.082031 86.28125 " clip-rule="nonzero"/></clipPath><clipPath id="4054df6b7b"><path d="M 45.332031 86.28125 L 66.992188 86.28125 C 71.566406 86.28125 75.953125 88.097656 79.1875 91.332031 C 82.421875 94.566406 84.238281 98.953125 84.238281 103.527344 L 84.238281 125.191406 C 84.238281 129.765625 82.421875 134.152344 79.1875 137.386719 C 75.953125 140.621094 71.566406 142.4375 66.992188 142.4375 L 45.332031 142.4375 C 40.757812 142.4375 36.371094 140.621094 33.136719 137.386719 C 29.902344 134.152344 28.082031 129.765625 28.082031 125.191406 L 28.082031 103.527344 C 28.082031 98.953125 29.902344 94.566406 33.136719 91.332031 C 36.371094 88.097656 40.757812 86.28125 45.332031 86.28125 Z M 45.332031 86.28125 " clip-rule="nonzero"/></clipPath><clipPath id="b18fdad9dd"><path d="M 28.082031 225.164062 L 84.25 225.164062 L 84.25 281.332031 L 28.082031 281.332031 Z M 28.082031 225.164062 " clip-rule="nonzero"/></clipPath><clipPath id="cb2f6ccbee"><path d="M 45.332031 225.164062 L 67 225.164062 C 71.574219 225.164062 75.964844 226.984375 79.199219 230.21875 C 82.433594 233.453125 84.25 237.839844 84.25 242.414062 L 84.25 264.082031 C 84.25 268.65625 82.433594 273.046875 79.199219 276.28125 C 75.964844 279.515625 71.574219 281.332031 67 281.332031 L 45.332031 281.332031 C 40.757812 281.332031 36.371094 279.515625 33.136719 276.28125 C 29.902344 273.046875 28.082031 268.65625 28.082031 264.082031 L 28.082031 242.414062 C 28.082031 237.839844 29.902344 233.453125 33.136719 230.21875 C 36.371094 226.984375 40.757812 225.164062 45.332031 225.164062 Z M 45.332031 225.164062 " clip-rule="nonzero"/></clipPath><clipPath id="6d93eea4e0"><path d="M 28.082031 225.164062 L 84.324219 225.164062 L 84.324219 281.40625 L 28.082031 281.40625 Z M 28.082031 225.164062 " clip-rule="nonzero"/></clipPath><clipPath id="f5ebf69552"><path d="M 45.332031 225.164062 L 66.992188 225.164062 C 71.566406 225.164062 75.953125 226.984375 79.1875 230.21875 C 82.421875 233.453125 84.238281 237.839844 84.238281 242.414062 L 84.238281 264.074219 C 84.238281 268.648438 82.421875 273.035156 79.1875 276.269531 C 75.953125 279.503906 71.566406 281.320312 66.992188 281.320312 L 45.332031 281.320312 C 40.757812 281.320312 36.371094 279.503906 33.136719 276.269531 C 29.902344 273.035156 28.082031 268.648438 28.082031 264.074219 L 28.082031 242.414062 C 28.082031 237.839844 29.902344 233.453125 33.136719 230.21875 C 36.371094 226.984375 40.757812 225.164062 45.332031 225.164062 Z M 45.332031 225.164062 " clip-rule="nonzero"/></clipPath><clipPath id="39dfddb1db"><path d="M 290.75 225.164062 L 346.917969 225.164062 L 346.917969 281.332031 L 290.75 281.332031 Z M 290.75 225.164062 " clip-rule="nonzero"/></clipPath><clipPath id="c5131473df"><path d="M 308 225.164062 L 329.667969 225.164062 C 334.242188 225.164062 338.628906 226.984375 341.863281 230.21875 C 345.097656 233.453125 346.917969 237.839844 346.917969 242.414062 L 346.917969 264.082031 C 346.917969 268.65625 345.097656 273.046875 341.863281 276.28125 C 338.628906 279.515625 334.242188 281.332031 329.667969 281.332031 L 308 281.332031 C 303.425781 281.332031 299.035156 279.515625 295.800781 276.28125 C 292.566406 273.046875 290.75 268.65625 290.75 264.082031 L 290.75 242.414062 C 290.75 237.839844 292.566406 233.453125 295.800781 230.21875 C 299.035156 226.984375 303.425781 225.164062 308 225.164062 Z M 308 225.164062 " clip-rule="nonzero"/></clipPath><clipPath id="a4301dd623"><path d="M 290.75 225.164062 L 346.988281 225.164062 L 346.988281 281.40625 L 290.75 281.40625 Z M 290.75 225.164062 " clip-rule="nonzero"/></clipPath><clipPath id="abd533daa6"><path d="M 307.996094 225.164062 L 329.660156 225.164062 C 334.234375 225.164062 338.621094 226.984375 341.855469 230.21875 C 345.089844 233.453125 346.90625 237.839844 346.90625 242.414062 L 346.90625 264.074219 C 346.90625 268.648438 345.089844 273.035156 341.855469 276.269531 C 338.621094 279.503906 334.234375 281.320312 329.660156 281.320312 L 307.996094 281.320312 C 303.421875 281.320312 299.035156 279.503906 295.800781 276.269531 C 292.566406 273.035156 290.75 268.648438 290.75 264.074219 L 290.75 242.414062 C 290.75 237.839844 292.566406 233.453125 295.800781 230.21875 C 299.035156 226.984375 303.421875 225.164062 307.996094 225.164062 Z M 307.996094 225.164062 " clip-rule="nonzero"/></clipPath><clipPath id="28dcef37a7"><path d="M 290.75 86.28125 L 346.917969 86.28125 L 346.917969 142.449219 L 290.75 142.449219 Z M 290.75 86.28125 " clip-rule="nonzero"/></clipPath><clipPath id="e099897d34"><path d="M 308 86.28125 L 329.667969 86.28125 C 334.242188 86.28125 338.628906 88.097656 341.863281 91.335938 C 345.097656 94.570312 346.917969 98.957031 346.917969 103.53125 L 346.917969 125.199219 C 346.917969 129.773438 345.097656 134.160156 341.863281 137.398438 C 338.628906 140.632812 334.242188 142.449219 329.667969 142.449219 L 308 142.449219 C 303.425781 142.449219 299.035156 140.632812 295.800781 137.398438 C 292.566406 134.160156 290.75 129.773438 290.75 125.199219 L 290.75 103.53125 C 290.75 98.957031 292.566406 94.570312 295.800781 91.335938 C 299.035156 88.097656 303.425781 86.28125 308 86.28125 Z M 308 86.28125 " clip-rule="nonzero"/></clipPath><clipPath id="2b9f5fed76"><path d="M 290.75 86.28125 L 346.988281 86.28125 L 346.988281 142.519531 L 290.75 142.519531 Z M 290.75 86.28125 " clip-rule="nonzero"/></clipPath><clipPath id="78f66e3d46"><path d="M 307.996094 86.28125 L 329.660156 86.28125 C 334.234375 86.28125 338.621094 88.097656 341.855469 91.332031 C 345.089844 94.566406 346.90625 98.953125 346.90625 103.527344 L 346.90625 125.191406 C 346.90625 129.765625 345.089844 134.152344 341.855469 137.386719 C 338.621094 140.621094 334.234375 142.4375 329.660156 142.4375 L 307.996094 142.4375 C 303.421875 142.4375 299.035156 140.621094 295.800781 137.386719 C 292.566406 134.152344 290.75 129.765625 290.75 125.191406 L 290.75 103.527344 C 290.75 98.953125 292.566406 94.566406 295.800781 91.332031 C 299.035156 88.097656 303.421875 86.28125 307.996094 86.28125 Z M 307.996094 86.28125 " clip-rule="nonzero"/></clipPath><clipPath id="7e97743c83"><path d="M 148.074219 148.171875 L 227 148.171875 L 227 226.828125 L 148.074219 226.828125 Z M 148.074219 148.171875 " clip-rule="nonzero"/></clipPath><clipPath id="659828386e"><path d="M 165.324219 148.171875 L 209.675781 148.171875 C 214.25 148.171875 218.640625 149.988281 221.875 153.222656 C 225.109375 156.457031 226.925781 160.847656 226.925781 165.421875 L 226.925781 209.578125 C 226.925781 214.152344 225.109375 218.542969 221.875 221.777344 C 218.640625 225.011719 214.25 226.828125 209.675781 226.828125 L 165.324219 226.828125 C 160.75 226.828125 156.359375 225.011719 153.125 221.777344 C 149.890625 218.542969 148.074219 214.152344 148.074219 209.578125 L 148.074219 165.421875 C 148.074219 160.847656 149.890625 156.457031 153.125 153.222656 C 156.359375 149.988281 160.75 148.171875 165.324219 148.171875 Z M 165.324219 148.171875 " clip-rule="nonzero"/></clipPath><clipPath id="a2eec2afa9"><path d="M 148.074219 148.175781 L 226.824219 148.175781 L 226.824219 226.921875 L 148.074219 226.921875 Z M 148.074219 148.175781 " clip-rule="nonzero"/></clipPath><clipPath id="d51ff2af52"><path d="M 165.320312 148.175781 L 209.667969 148.175781 C 214.242188 148.175781 218.632812 149.992188 221.867188 153.226562 C 225.101562 156.460938 226.917969 160.847656 226.917969 165.421875 L 226.917969 209.574219 C 226.917969 214.148438 225.101562 218.539062 221.867188 221.773438 C 218.632812 225.007812 214.242188 226.824219 209.667969 226.824219 L 165.320312 226.824219 C 160.746094 226.824219 156.359375 225.007812 153.125 221.773438 C 149.890625 218.539062 148.074219 214.148438 148.074219 209.574219 L 148.074219 165.421875 C 148.074219 160.847656 149.890625 156.460938 153.125 153.226562 C 156.359375 149.992188 160.746094 148.175781 165.320312 148.175781 Z M 165.320312 148.175781 " clip-rule="nonzero"/></clipPath></defs><g clip-path="url(#e60405157a)"><g clip-path="url(#2ab5a04965)"><path stroke-linecap="butt" transform="matrix(0.75, 0, 0, 0.75, 37.279089, 37.389541)" fill="none" stroke-linejoin="miter" d="M 200.138311 0.00144546 C 89.607054 0.00144546 -0.00232702 89.605618 -0.00232702 200.142084 C -0.00232702 310.673341 89.607054 400.282722 200.138311 400.282722 C 310.674777 400.282722 400.278949 310.673341 400.278949 200.142084 C 400.278949 89.605618 310.674777 0.00144546 200.138311 0.00144546 Z M 200.138311 0.00144546 " stroke="#000000" stroke-width="2" stroke-opacity="1" stroke-miterlimit="4"/></g></g><g clip-path="url(#fccd8abced)"><g clip-path="url(#134e81fc7d)"><path fill="#d9d9d9" d="M 159.417969 0 L 215.582031 0 L 215.582031 56.167969 L 159.417969 56.167969 Z M 159.417969 0 " fill-opacity="1" fill-rule="nonzero"/></g></g><g clip-path="url(#67d22407c3)"><g clip-path="url(#7b10103443)"><path stroke-linecap="butt" transform="matrix(0.75, 0, 0, 0.75, 159.416406, 0)" fill="none" stroke-linejoin="miter" d="M 22.996878 0 L 51.87709 0 C 57.976049 0 63.825009 2.421875 68.137509 6.734376 C 72.45001 11.046876 74.877093 16.895836 74.877093 22.994795 L 74.877093 51.880215 C 74.877093 57.979174 72.45001 63.828133 68.137509 68.140634 C 63.825009 72.453134 57.976049 74.87501 51.87709 74.87501 L 22.996878 74.87501 C 16.897919 74.87501 11.04896 72.453134 6.736459 68.140634 C 2.423959 63.828133 0.00208362 57.979174 0.00208362 51.880215 L 0.00208362 22.994795 C 0.00208362 16.895836 2.423959 11.046876 6.736459 6.734376 C 11.04896 2.421875 16.897919 0 22.996878 0 Z M 22.996878 0 " stroke="#000000" stroke-width="8" stroke-opacity="1" stroke-miterlimit="4"/></g></g><g clip-path="url(#115d68f3f8)"><g clip-path="url(#d954789930)"><path fill="#d9d9d9" d="M 159.304688 318.832031 L 215.472656 318.832031 L 215.472656 375 L 159.304688 375 Z M 159.304688 318.832031 " fill-opacity="1" fill-rule="nonzero"/></g></g><g clip-path="url(#5690d3deb3)"><g clip-path="url(#54f8c8cc5e)"><path stroke-linecap="butt" transform="matrix(0.75, 0, 0, 0.75, 159.30597, 318.832801)" fill="none" stroke-linejoin="miter" d="M 22.993085 -0.00102588 L 51.878505 -0.00102588 C 57.977464 -0.00102588 63.826423 2.420849 68.138924 6.73335 C 72.451424 11.045851 74.8733 16.89481 74.8733 22.993769 L 74.8733 51.879189 C 74.8733 57.978148 72.451424 63.827107 68.138924 68.139608 C 63.826423 72.452109 57.977464 74.873984 51.878505 74.873984 L 22.993085 74.873984 C 16.899334 74.873984 11.045166 72.452109 6.732666 68.139608 C 2.420165 63.827107 -0.00171005 57.978148 -0.00171005 51.879189 L -0.00171005 22.993769 C -0.00171005 16.89481 2.420165 11.045851 6.732666 6.73335 C 11.045166 2.420849 16.899334 -0.00102588 22.993085 -0.00102588 Z M 22.993085 -0.00102588 " stroke="#000000" stroke-width="8" stroke-opacity="1" stroke-miterlimit="4"/></g></g><g clip-path="url(#2b9a094c03)"><g clip-path="url(#36e34fda36)"><path fill="#d9d9d9" d="M 0 159.417969 L 56.167969 159.417969 L 56.167969 215.582031 L 0 215.582031 Z M 0 159.417969 " fill-opacity="1" fill-rule="nonzero"/></g></g><g clip-path="url(#e1b3fe7a92)"><g clip-path="url(#ceab37fef7)"><path stroke-linecap="butt" transform="matrix(0.75, 0, 0, 0.75, 0.0000045, 159.416402)" fill="none" stroke-linejoin="miter" d="M 22.994789 0.00208962 L 51.880209 0.00208962 C 57.979168 0.00208962 63.828127 2.423965 68.140628 6.736465 C 72.453128 11.048966 74.875004 16.897925 74.875004 22.996884 L 74.875004 51.877096 C 74.875004 57.976055 72.453128 63.825015 68.140628 68.137515 C 63.828127 72.450016 57.979168 74.877099 51.880209 74.877099 L 22.994789 74.877099 C 16.89583 74.877099 11.04687 72.450016 6.73437 68.137515 C 2.421869 63.825015 -0.000006 57.976055 -0.000006 51.877096 L -0.000006 22.996884 C -0.000006 16.897925 2.421869 11.048966 6.73437 6.736465 C 11.04687 2.423965 16.89583 0.00208962 22.994789 0.00208962 Z M 22.994789 0.00208962 " stroke="#000000" stroke-width="8" stroke-opacity="1" stroke-miterlimit="4"/></g></g><g clip-path="url(#c63284a429)"><g clip-path="url(#99c0e8e448)"><path fill="#d9d9d9" d="M 318.832031 159.417969 L 375 159.417969 L 375 215.582031 L 318.832031 215.582031 Z M 318.832031 159.417969 " fill-opacity="1" fill-rule="nonzero"/></g></g><g clip-path="url(#fc7e870ac8)"><g clip-path="url(#5169e6de1a)"><path stroke-linecap="butt" transform="matrix(0.75, 0, 0, 0.75, 318.832805, 159.416402)" fill="none" stroke-linejoin="miter" d="M 22.993763 0.00208962 L 51.879183 0.00208962 C 57.978142 0.00208962 63.827101 2.423965 68.139602 6.736465 C 72.452103 11.048966 74.873978 16.897925 74.873978 22.996884 L 74.873978 51.877096 C 74.873978 57.976055 72.452103 63.825015 68.139602 68.137515 C 63.827101 72.450016 57.978142 74.877099 51.879183 74.877099 L 22.993763 74.877099 C 16.894804 74.877099 11.045845 72.450016 6.733344 68.137515 C 2.420843 63.825015 -0.00103188 57.976055 -0.00103188 51.877096 L -0.00103188 22.996884 C -0.00103188 16.897925 2.420843 11.048966 6.733344 6.736465 C 11.045845 2.423965 16.894804 0.00208962 22.993763 0.00208962 Z M 22.993763 0.00208962 " stroke="#000000" stroke-width="8" stroke-opacity="1" stroke-miterlimit="4"/></g></g><g clip-path="url(#8432d99b20)"><g clip-path="url(#465c616777)"><path fill="#d9d9d9" d="M 86.640625 28.082031 L 142.804688 28.082031 L 142.804688 84.25 L 86.640625 84.25 Z M 86.640625 28.082031 " fill-opacity="1" fill-rule="nonzero"/></g></g><g clip-path="url(#3e647591fc)"><g clip-path="url(#450a6bf070)"><path stroke-linecap="butt" transform="matrix(0.75, 0, 0, 0.75, 86.638806, 28.083576)" fill="none" stroke-linejoin="miter" d="M 22.99722 -0.00205977 L 51.877432 -0.00205977 C 57.976391 -0.00205977 63.82535 2.425024 68.137851 6.737524 C 72.450351 11.050025 74.877435 16.898984 74.877435 22.997943 L 74.877435 51.878155 C 74.877435 57.977114 72.450351 63.826074 68.137851 68.138574 C 63.82535 72.451075 57.976391 74.87295 51.877432 74.87295 L 22.99722 74.87295 C 16.898261 74.87295 11.049302 72.451075 6.736801 68.138574 C 2.424301 63.826074 0.00242532 57.977114 0.00242532 51.878155 L 0.00242532 22.997943 C 0.00242532 16.898984 2.424301 11.050025 6.736801 6.737524 C 11.049302 2.425024 16.898261 -0.00205977 22.99722 -0.00205977 Z M 22.99722 -0.00205977 " stroke="#000000" stroke-width="8" stroke-opacity="1" stroke-miterlimit="4"/></g></g><g clip-path="url(#5e58a76921)"><g clip-path="url(#3321dc6cef)"><path fill="#d9d9d9" d="M 232.082031 281.441406 L 288.25 281.441406 L 288.25 337.609375 L 232.082031 337.609375 Z M 232.082031 281.441406 " fill-opacity="1" fill-rule="nonzero"/></g></g><g clip-path="url(#cc0588ad42)"><g clip-path="url(#70fc9d966b)"><path stroke-linecap="butt" transform="matrix(0.75, 0, 0, 0.75, 232.083563, 281.443282)" fill="none" stroke-linejoin="miter" d="M 22.997961 -0.00250143 L 51.878173 -0.00250143 C 57.977132 -0.00250143 63.826091 2.424582 68.138592 6.737083 C 72.451092 11.049583 74.872968 16.898542 74.872968 22.997502 L 74.872968 51.877714 C 74.872968 57.976673 72.451092 63.825632 68.138592 68.138132 C 63.826091 72.450633 57.977132 74.872508 51.878173 74.872508 L 22.997961 74.872508 C 16.899002 74.872508 11.050043 72.450633 6.737542 68.138132 C 2.425042 63.825632 -0.00204215 57.976673 -0.00204215 51.877714 L -0.00204215 22.997502 C -0.00204215 16.898542 2.425042 11.049583 6.737542 6.737083 C 11.050043 2.424582 16.899002 -0.00250143 22.997961 -0.00250143 Z M 22.997961 -0.00250143 " stroke="#000000" stroke-width="8" stroke-opacity="1" stroke-miterlimit="4"/></g></g><g clip-path="url(#42ec4251d1)"><g clip-path="url(#f0b1fc70b7)"><path fill="#d9d9d9" d="M 86.640625 281.441406 L 142.804688 281.441406 L 142.804688 337.609375 L 86.640625 337.609375 Z M 86.640625 281.441406 " fill-opacity="1" fill-rule="nonzero"/></g></g><g clip-path="url(#b889ecb0b1)"><g clip-path="url(#b0a83c09d3)"><path stroke-linecap="butt" transform="matrix(0.75, 0, 0, 0.75, 86.638806, 281.443282)" fill="none" stroke-linejoin="miter" d="M 22.99722 -0.00250143 L 51.877432 -0.00250143 C 57.976391 -0.00250143 63.82535 2.424582 68.137851 6.737083 C 72.450351 11.049583 74.877435 16.898542 74.877435 22.997502 L 74.877435 51.877714 C 74.877435 57.976673 72.450351 63.825632 68.137851 68.138132 C 63.82535 72.450633 57.976391 74.872508 51.877432 74.872508 L 22.99722 74.872508 C 16.898261 74.872508 11.049302 72.450633 6.736801 68.138132 C 2.424301 63.825632 0.00242532 57.976673 0.00242532 51.877714 L 0.00242532 22.997502 C 0.00242532 16.898542 2.424301 11.049583 6.736801 6.737083 C 11.049302 2.424582 16.898261 -0.00250143 22.99722 -0.00250143 Z M 22.99722 -0.00250143 " stroke="#000000" stroke-width="8" stroke-opacity="1" stroke-miterlimit="4"/></g></g><g clip-path="url(#20e1de5760)"><g clip-path="url(#e05452e4cf)"><path fill="#d9d9d9" d="M 232.082031 28.082031 L 288.25 28.082031 L 288.25 84.25 L 232.082031 84.25 Z M 232.082031 28.082031 " fill-opacity="1" fill-rule="nonzero"/></g></g><g clip-path="url(#c6610160f6)"><g clip-path="url(#a6ca2695ef)"><path stroke-linecap="butt" transform="matrix(0.75, 0, 0, 0.75, 232.083563, 28.083576)" fill="none" stroke-linejoin="miter" d="M 22.997961 -0.00205977 L 51.878173 -0.00205977 C 57.977132 -0.00205977 63.826091 2.425024 68.138592 6.737524 C 72.451092 11.050025 74.872968 16.898984 74.872968 22.997943 L 74.872968 51.878155 C 74.872968 57.977114 72.451092 63.826074 68.138592 68.138574 C 63.826091 72.451075 57.977132 74.87295 51.878173 74.87295 L 22.997961 74.87295 C 16.899002 74.87295 11.050043 72.451075 6.737542 68.138574 C 2.425042 63.826074 -0.00204215 57.977114 -0.00204215 51.878155 L -0.00204215 22.997943 C -0.00204215 16.898984 2.425042 11.050025 6.737542 6.737524 C 11.050043 2.425024 16.899002 -0.00205977 22.997961 -0.00205977 Z M 22.997961 -0.00205977 " stroke="#000000" stroke-width="8" stroke-opacity="1" stroke-miterlimit="4"/></g></g><g clip-path="url(#dfeacbac52)"><g clip-path="url(#592e03a9d5)"><path fill="#d9d9d9" d="M 28.082031 86.28125 L 84.25 86.28125 L 84.25 142.449219 L 28.082031 142.449219 Z M 28.082031 86.28125 " fill-opacity="1" fill-rule="nonzero"/></g></g><g clip-path="url(#2e03e26067)"><g clip-path="url(#4054df6b7b)"><path stroke-linecap="butt" transform="matrix(0.75, 0, 0, 0.75, 28.083581, 86.282022)" fill="none" stroke-linejoin="miter" d="M 22.997937 -0.00102978 L 51.878149 -0.00102978 C 57.977108 -0.00102978 63.826068 2.420846 68.138568 6.733346 C 72.451069 11.045847 74.872944 16.894806 74.872944 22.993765 L 74.872944 51.879185 C 74.872944 57.978144 72.451069 63.827103 68.138568 68.139604 C 63.826068 72.452105 57.977108 74.87398 51.878149 74.87398 L 22.997937 74.87398 C 16.898978 74.87398 11.050019 72.452105 6.737518 68.139604 C 2.425018 63.827103 -0.00206577 57.978144 -0.00206577 51.879185 L -0.00206577 22.993765 C -0.00206577 16.894806 2.425018 11.045847 6.737518 6.733346 C 11.050019 2.420846 16.898978 -0.00102978 22.997937 -0.00102978 Z M 22.997937 -0.00102978 " stroke="#000000" stroke-width="8" stroke-opacity="1" stroke-miterlimit="4"/></g></g><g clip-path="url(#b18fdad9dd)"><g clip-path="url(#cb2f6ccbee)"><path fill="#d9d9d9" d="M 28.082031 225.164062 L 84.25 225.164062 L 84.25 281.332031 L 28.082031 281.332031 Z M 28.082031 225.164062 " fill-opacity="1" fill-rule="nonzero"/></g></g><g clip-path="url(#6d93eea4e0)"><g clip-path="url(#f5ebf69552)"><path stroke-linecap="butt" transform="matrix(0.75, 0, 0, 0.75, 28.083581, 225.165674)" fill="none" stroke-linejoin="miter" d="M 22.997937 -0.00214869 L 51.878149 -0.00214869 C 57.977108 -0.00214869 63.826068 2.424935 68.138568 6.737436 C 72.451069 11.049936 74.872944 16.898895 74.872944 22.997854 L 74.872944 51.878066 C 74.872944 57.977025 72.451069 63.825985 68.138568 68.138485 C 63.826068 72.450986 57.977108 74.872861 51.878149 74.872861 L 22.997937 74.872861 C 16.898978 74.872861 11.050019 72.450986 6.737518 68.138485 C 2.425018 63.825985 -0.00206577 57.977025 -0.00206577 51.878066 L -0.00206577 22.997854 C -0.00206577 16.898895 2.425018 11.049936 6.737518 6.737436 C 11.050019 2.424935 16.898978 -0.00214869 22.997937 -0.00214869 Z M 22.997937 -0.00214869 " stroke="#000000" stroke-width="8" stroke-opacity="1" stroke-miterlimit="4"/></g></g><g clip-path="url(#39dfddb1db)"><g clip-path="url(#c5131473df)"><path fill="#d9d9d9" d="M 290.75 225.164062 L 346.917969 225.164062 L 346.917969 281.332031 L 290.75 281.332031 Z M 290.75 225.164062 " fill-opacity="1" fill-rule="nonzero"/></g></g><g clip-path="url(#a4301dd623)"><g clip-path="url(#abd533daa6)"><path stroke-linecap="butt" transform="matrix(0.75, 0, 0, 0.75, 290.749233, 225.165674)" fill="none" stroke-linejoin="miter" d="M 22.995817 -0.00214869 L 51.881237 -0.00214869 C 57.980196 -0.00214869 63.829155 2.424935 68.141656 6.737436 C 72.454157 11.049936 74.876032 16.898895 74.876032 22.997854 L 74.876032 51.878066 C 74.876032 57.977025 72.454157 63.825985 68.141656 68.138485 C 63.829155 72.450986 57.980196 74.872861 51.881237 74.872861 L 22.995817 74.872861 C 16.896858 74.872861 11.047899 72.450986 6.735398 68.138485 C 2.422897 63.825985 0.00102212 57.977025 0.00102212 51.878066 L 0.00102212 22.997854 C 0.00102212 16.898895 2.422897 11.049936 6.735398 6.737436 C 11.047899 2.424935 16.896858 -0.00214869 22.995817 -0.00214869 Z M 22.995817 -0.00214869 " stroke="#000000" stroke-width="8" stroke-opacity="1" stroke-miterlimit="4"/></g></g><g clip-path="url(#28dcef37a7)"><g clip-path="url(#e099897d34)"><path fill="#d9d9d9" d="M 290.75 86.28125 L 346.917969 86.28125 L 346.917969 142.449219 L 290.75 142.449219 Z M 290.75 86.28125 " fill-opacity="1" fill-rule="nonzero"/></g></g><g clip-path="url(#2b9f5fed76)"><g clip-path="url(#78f66e3d46)"><path stroke-linecap="butt" transform="matrix(0.75, 0, 0, 0.75, 290.749233, 86.282022)" fill="none" stroke-linejoin="miter" d="M 22.995817 -0.00102978 L 51.881237 -0.00102978 C 57.980196 -0.00102978 63.829155 2.420846 68.141656 6.733346 C 72.454157 11.045847 74.876032 16.894806 74.876032 22.993765 L 74.876032 51.879185 C 74.876032 57.978144 72.454157 63.827103 68.141656 68.139604 C 63.829155 72.452105 57.980196 74.87398 51.881237 74.87398 L 22.995817 74.87398 C 16.896858 74.87398 11.047899 72.452105 6.735398 68.139604 C 2.422897 63.827103 0.00102212 57.978144 0.00102212 51.879185 L 0.00102212 22.993765 C 0.00102212 16.894806 2.422897 11.045847 6.735398 6.733346 C 11.047899 2.420846 16.896858 -0.00102978 22.995817 -0.00102978 Z M 22.995817 -0.00102978 " stroke="#000000" stroke-width="8" stroke-opacity="1" stroke-miterlimit="4"/></g></g><g clip-path="url(#7e97743c83)"><g clip-path="url(#659828386e)"><path fill="#d9d9d9" d="M 148.074219 148.171875 L 227.039062 148.171875 L 227.039062 226.828125 L 148.074219 226.828125 Z M 148.074219 148.171875 " fill-opacity="1" fill-rule="nonzero"/></g></g><g clip-path="url(#a2eec2afa9)"><g clip-path="url(#d51ff2af52)"><path stroke-linecap="butt" transform="matrix(0.75, 0, 0, 0.75, 148.073637, 148.175381)" fill="none" stroke-linejoin="miter" d="M 22.995567 0.000534107 L 82.125776 0.000534107 C 88.224734 0.000534107 94.078901 2.422409 98.391401 6.734909 C 102.703901 11.047409 105.125776 16.896367 105.125776 22.995326 L 105.125776 81.865118 C 105.125776 87.964076 102.703901 93.818243 98.391401 98.130743 C 94.078901 102.443243 88.224734 104.865118 82.125776 104.865118 L 22.995567 104.865118 C 16.896609 104.865118 11.04765 102.443243 6.73515 98.130743 C 2.42265 93.818243 0.000775431 87.964076 0.000775431 81.865118 L 0.000775431 22.995326 C 0.000775431 16.896367 2.42265 11.047409 6.73515 6.734909 C 11.04765 2.422409 16.896609 0.000534107 22.995567 0.000534107 Z M 22.995567 0.000534107 " stroke="#000000" stroke-width="8" stroke-opacity="1" stroke-miterlimit="4"/></g></g><g fill="#000000" fill-opacity="1"><g transform="translate(161.960355, 198.421379)"><g><path d="M 1.578125 0 L 1.578125 -2.15625 L 7.609375 -2.15625 L 7.609375 -19.078125 L 7.265625 -19.15625 C 6.285156 -18.675781 5.425781 -18.304688 4.6875 -18.046875 C 3.957031 -17.796875 3.015625 -17.546875 1.859375 -17.296875 L 1.859375 -19.6875 C 3.003906 -19.9375 4.132812 -20.265625 5.25 -20.671875 C 6.363281 -21.085938 7.375 -21.570312 8.28125 -22.125 L 10.15625 -22.125 L 10.15625 -2.15625 L 15.5625 -2.15625 L 15.5625 0 Z M 1.578125 0 "/></g></g></g><g fill="#000000" fill-opacity="1"><g transform="translate(178.457298, 198.421379)"><g><path d="M 1.328125 -1.015625 C 1.328125 -2.234375 1.460938 -3.21875 1.734375 -3.96875 C 2.003906 -4.71875 2.460938 -5.414062 3.109375 -6.0625 C 3.753906 -6.707031 4.78125 -7.539062 6.1875 -8.5625 L 8.625 -10.34375 C 9.519531 -11 10.25 -11.601562 10.8125 -12.15625 C 11.382812 -12.707031 11.832031 -13.304688 12.15625 -13.953125 C 12.488281 -14.609375 12.65625 -15.34375 12.65625 -16.15625 C 12.65625 -17.46875 12.304688 -18.453125 11.609375 -19.109375 C 10.910156 -19.773438 9.820312 -20.109375 8.34375 -20.109375 C 7.164062 -20.109375 6.125 -19.835938 5.21875 -19.296875 C 4.3125 -18.753906 3.585938 -17.984375 3.046875 -16.984375 L 2.6875 -16.921875 L 1.140625 -18.5625 C 1.878906 -19.769531 2.859375 -20.71875 4.078125 -21.40625 C 5.296875 -22.101562 6.71875 -22.453125 8.34375 -22.453125 C 9.914062 -22.453125 11.21875 -22.179688 12.25 -21.640625 C 13.289062 -21.109375 14.054688 -20.367188 14.546875 -19.421875 C 15.046875 -18.484375 15.296875 -17.394531 15.296875 -16.15625 C 15.296875 -15.164062 15.085938 -14.238281 14.671875 -13.375 C 14.265625 -12.519531 13.679688 -11.710938 12.921875 -10.953125 C 12.171875 -10.203125 11.222656 -9.40625 10.078125 -8.5625 L 7.609375 -6.765625 C 6.691406 -6.085938 5.984375 -5.507812 5.484375 -5.03125 C 4.992188 -4.5625 4.632812 -4.101562 4.40625 -3.65625 C 4.1875 -3.207031 4.078125 -2.707031 4.078125 -2.15625 L 15.296875 -2.15625 L 15.296875 0 L 1.328125 0 Z M 1.328125 -1.015625 "/></g></g></g><g fill="#000000" fill-opacity="1"><g transform="translate(195.468825, 198.421379)"><g><path d="M 16.34375 -22.125 L 16.34375 -19.984375 L 5.953125 -19.984375 L 5.953125 -11.921875 L 15.296875 -11.921875 L 15.296875 -9.765625 L 5.953125 -9.765625 L 5.953125 0 L 3.34375 0 L 3.34375 -22.125 Z M 16.34375 -22.125 "/></g></g></g><path stroke-linecap="butt" transform="matrix(0.363526, 0.65601, -0.65601, 0.363526, 131.279189, 82.957305)" fill="none" stroke-linejoin="miter" d="M 2.000377 1.998544 L 96.307241 2.001139 " stroke="#000000" stroke-width="4" stroke-opacity="1" stroke-miterlimit="4"/><path stroke-linecap="round" transform="matrix(0.363526, 0.65601, -0.65601, 0.363526, 131.279189, 82.957305)" fill="none" stroke-linejoin="round" d="M 9.999437 -4.001193 L 2.000377 1.998544 L 10.001237 7.998241 " stroke="#000000" stroke-width="4" stroke-opacity="1" stroke-miterlimit="4"/><path stroke-linecap="round" transform="matrix(0.363526, 0.65601, -0.65601, 0.363526, 131.279189, 82.957305)" fill="none" stroke-linejoin="round" d="M 88.30638 -3.998557 L 96.307241 2.001139 L 88.30818 8.000876 " stroke="#000000" stroke-width="4" stroke-opacity="1" stroke-miterlimit="4"/><path stroke-linecap="butt" transform="matrix(0.75, 0, 0, 0.75, 56.167158, 185.999988)" fill="none" stroke-linejoin="miter" d="M 2.001082 2.000016 L 120.542756 2.000016 " stroke="#000000" stroke-width="4" stroke-opacity="1" stroke-miterlimit="4"/><path stroke-linecap="round" transform="matrix(0.75, 0, 0, 0.75, 56.167158, 185.999988)" fill="none" stroke-linejoin="round" d="M 10.001082 -3.999984 L 2.001082 2.000016 L 10.001082 8.000017 " stroke="#000000" stroke-width="4" stroke-opacity="1" stroke-miterlimit="4"/><path stroke-linecap="round" transform="matrix(0.75, 0, 0, 0.75, 56.167158, 185.999988)" fill="none" stroke-linejoin="round" d="M 112.542756 -3.999984 L 120.542756 2.000016 L 112.542756 8.000017 " stroke="#000000" stroke-width="4" stroke-opacity="1" stroke-miterlimit="4"/><path stroke-linecap="butt" transform="matrix(0.75, 0, 0, 0.75, 226.926347, 185.999988)" fill="none" stroke-linejoin="miter" d="M 1.999246 2.000016 L 120.54092 2.000016 " stroke="#000000" stroke-width="4" stroke-opacity="1" stroke-miterlimit="4"/><path stroke-linecap="round" transform="matrix(0.75, 0, 0, 0.75, 226.926347, 185.999988)" fill="none" stroke-linejoin="round" d="M 9.999246 -3.999984 L 1.999246 2.000016 L 9.999246 8.000017 " stroke="#000000" stroke-width="4" stroke-opacity="1" stroke-miterlimit="4"/><path stroke-linecap="round" transform="matrix(0.75, 0, 0, 0.75, 226.926347, 185.999988)" fill="none" stroke-linejoin="round" d="M 112.540919 -3.999984 L 120.54092 2.000016 L 112.540919 8.000017 " stroke="#000000" stroke-width="4" stroke-opacity="1" stroke-miterlimit="4"/><path stroke-linecap="butt" transform="matrix(-0.00051966, 0.75, -0.75, -0.00051966, 188.972555, 226.82981)" fill="none" stroke-linejoin="miter" d="M 1.999139 1.998481 L 120.671049 1.999589 " stroke="#000000" stroke-width="4" stroke-opacity="1" stroke-miterlimit="4"/><path stroke-linecap="round" transform="matrix(-0.00051966, 0.75, -0.75, -0.00051966, 188.972555, 226.82981)" fill="none" stroke-linejoin="round" d="M 10.000192 -4.001856 L 1.999139 1.998481 L 9.99809 7.998149 " stroke="#000000" stroke-width="4" stroke-opacity="1" stroke-miterlimit="4"/><path stroke-linecap="round" transform="matrix(-0.00051966, 0.75, -0.75, -0.00051966, 188.972555, 226.82981)" fill="none" stroke-linejoin="round" d="M 112.672098 -4.000079 L 120.671049 1.999589 L 112.669996 7.999926 " stroke="#000000" stroke-width="4" stroke-opacity="1" stroke-miterlimit="4"/><path stroke-linecap="butt" transform="matrix(0.655254, 0.364887, -0.364887, 0.655254, 84.393479, 128.367061)" fill="none" stroke-linejoin="miter" d="M 1.997477 1.999738 L 96.296744 2.002206 " stroke="#000000" stroke-width="4" stroke-opacity="1" stroke-miterlimit="4"/><path stroke-linecap="round" transform="matrix(0.655254, 0.364887, -0.364887, 0.655254, 84.393479, 128.367061)" fill="none" stroke-linejoin="round" d="M 10.000552 -4.000888 L 1.997477 1.999738 L 10.000393 7.999558 " stroke="#000000" stroke-width="4" stroke-opacity="1" stroke-miterlimit="4"/><path stroke-linecap="round" transform="matrix(0.655254, 0.364887, -0.364887, 0.655254, 84.393479, 128.367061)" fill="none" stroke-linejoin="round" d="M 88.298379 -4.000149 L 96.296744 2.002206 L 88.29822 8.000298 " stroke="#000000" stroke-width="4" stroke-opacity="1" stroke-miterlimit="4"/><path stroke-linecap="butt" transform="matrix(0.670651, -0.335749, 0.335749, 0.670651, 83.30307, 237.98408)" fill="none" stroke-linejoin="miter" d="M 2.00156 1.998482 L 93.575552 1.998096 " stroke="#000000" stroke-width="4" stroke-opacity="1" stroke-miterlimit="4"/><path stroke-linecap="round" transform="matrix(0.670651, -0.335749, 0.335749, 0.670651, 83.30307, 237.98408)" fill="none" stroke-linejoin="round" d="M 10.000859 -3.997599 L 2.00156 1.998482 L 9.999465 8.000305 " stroke="#000000" stroke-width="4" stroke-opacity="1" stroke-miterlimit="4"/><path stroke-linecap="round" transform="matrix(0.670651, -0.335749, 0.335749, 0.670651, 83.30307, 237.98408)" fill="none" stroke-linejoin="round" d="M 85.575316 -3.99907 L 93.575552 1.998096 L 85.578579 8.001166 " stroke="#000000" stroke-width="4" stroke-opacity="1" stroke-miterlimit="4"/><path stroke-linecap="butt" transform="matrix(0.384168, -0.644139, 0.644139, 0.384168, 129.667422, 281.534806)" fill="none" stroke-linejoin="miter" d="M 1.998189 1.998939 L 84.194536 2.000317 " stroke="#000000" stroke-width="4" stroke-opacity="1" stroke-miterlimit="4"/><path stroke-linecap="round" transform="matrix(0.384168, -0.644139, 0.644139, 0.384168, 129.667422, 281.534806)" fill="none" stroke-linejoin="round" d="M 9.998597 -3.997544 L 1.998189 1.998939 L 9.999886 8.002937 " stroke="#000000" stroke-width="4" stroke-opacity="1" stroke-miterlimit="4"/><path stroke-linecap="round" transform="matrix(0.384168, -0.644139, 0.644139, 0.384168, 129.667422, 281.534806)" fill="none" stroke-linejoin="round" d="M 76.195506 -3.999208 L 84.194536 2.000317 L 76.196795 8.001273 " stroke="#000000" stroke-width="4" stroke-opacity="1" stroke-miterlimit="4"/><path stroke-linecap="butt" transform="matrix(0, 0.75, -0.75, 0, 188.999831, 56.167314)" fill="none" stroke-linejoin="miter" d="M 2.000873 1.999775 L 120.672756 1.999775 " stroke="#000000" stroke-width="4" stroke-opacity="1" stroke-miterlimit="4"/><path stroke-linecap="round" transform="matrix(0, 0.75, -0.75, 0, 188.999831, 56.167314)" fill="none" stroke-linejoin="round" d="M 10.000874 -4.000225 L 2.000873 1.999775 L 10.000874 7.999776 " stroke="#000000" stroke-width="4" stroke-opacity="1" stroke-miterlimit="4"/><path stroke-linecap="round" transform="matrix(0, 0.75, -0.75, 0, 188.999831, 56.167314)" fill="none" stroke-linejoin="round" d="M 112.672756 -4.000225 L 120.672756 1.999775 L 112.672756 7.999776 " stroke="#000000" stroke-width="4" stroke-opacity="1" stroke-miterlimit="4"/><path stroke-linecap="butt" transform="matrix(0.363103, -0.656244, 0.656244, 0.363103, 207.945576, 147.440645)" fill="none" stroke-linejoin="miter" d="M 1.998778 2.000835 L 96.261208 2.000186 " stroke="#000000" stroke-width="4" stroke-opacity="1" stroke-miterlimit="4"/><path stroke-linecap="round" transform="matrix(0.363103, -0.656244, 0.656244, 0.363103, 207.945576, 147.440645)" fill="none" stroke-linejoin="round" d="M 10.000978 -3.998267 L 1.998778 2.000835 L 10.00309 8.000677 " stroke="#000000" stroke-width="4" stroke-opacity="1" stroke-miterlimit="4"/><path stroke-linecap="round" transform="matrix(0.363103, -0.656244, 0.656244, 0.363103, 207.945576, 147.440645)" fill="none" stroke-linejoin="round" d="M 88.263976 -3.99762 L 96.261208 2.000186 L 88.266088 8.001324 " stroke="#000000" stroke-width="4" stroke-opacity="1" stroke-miterlimit="4"/><path stroke-linecap="butt" transform="matrix(0.655254, -0.364887, 0.364887, 0.655254, 226.196562, 164.234272)" fill="none" stroke-linejoin="miter" d="M 2.000767 2.002564 L 96.300033 2.000096 " stroke="#000000" stroke-width="4" stroke-opacity="1" stroke-miterlimit="4"/><path stroke-linecap="round" transform="matrix(0.655254, -0.364887, 0.364887, 0.655254, 226.196562, 164.234272)" fill="none" stroke-linejoin="round" d="M 9.999132 -3.999791 L 2.000767 2.002564 L 9.999291 8.000655 " stroke="#000000" stroke-width="4" stroke-opacity="1" stroke-miterlimit="4"/><path stroke-linecap="round" transform="matrix(0.655254, -0.364887, 0.364887, 0.655254, 226.196562, 164.234272)" fill="none" stroke-linejoin="round" d="M 88.296959 -4.00053 L 96.300033 2.000096 L 88.297118 7.999916 " stroke="#000000" stroke-width="4" stroke-opacity="1" stroke-miterlimit="4"/><path stroke-linecap="butt" transform="matrix(0.383738, 0.644395, -0.644395, 0.383738, 212.182579, 226.020849)" fill="none" stroke-linejoin="miter" d="M 2.0004 2.001959 L 84.145993 2.000337 " stroke="#000000" stroke-width="4" stroke-opacity="1" stroke-miterlimit="4"/><path stroke-linecap="round" transform="matrix(0.383738, 0.644395, -0.644395, 0.383738, 212.182579, 226.020849)" fill="none" stroke-linejoin="round" d="M 9.999895 -4.000242 L 2.0004 2.001959 L 9.999482 8.002047 " stroke="#000000" stroke-width="4" stroke-opacity="1" stroke-miterlimit="4"/><path stroke-linecap="round" transform="matrix(0.383738, 0.644395, -0.644395, 0.383738, 212.182579, 226.020849)" fill="none" stroke-linejoin="round" d="M 76.146911 -3.999751 L 84.145993 2.000337 L 76.146497 8.002538 " stroke="#000000" stroke-width="4" stroke-opacity="1" stroke-miterlimit="4"/><path stroke-linecap="butt" transform="matrix(0.670651, 0.335749, -0.335749, 0.670651, 227.597289, 205.899111)" fill="none" stroke-linejoin="miter" d="M 1.997202 1.998785 L 93.578182 2.001498 " stroke="#000000" stroke-width="4" stroke-opacity="1" stroke-miterlimit="4"/><path stroke-linecap="round" transform="matrix(0.670651, 0.335749, -0.335749, 0.670651, 227.597289, 205.899111)" fill="none" stroke-linejoin="round" d="M 10.002095 -4.000712 L 1.997202 1.998785 L 9.998832 7.999524 " stroke="#000000" stroke-width="4" stroke-opacity="1" stroke-miterlimit="4"/><path stroke-linecap="round" transform="matrix(0.670651, 0.335749, -0.335749, 0.670651, 227.597289, 205.899111)" fill="none" stroke-linejoin="round" d="M 85.576552 -3.999241 L 93.578182 2.001498 L 85.577946 7.998663 " stroke="#000000" stroke-width="4" stroke-opacity="1" stroke-miterlimit="4"/></svg>