<?xml version="1.0" encoding="UTF-8"?>
<!-- Generated by Pixelmator Pro 3.5.7 -->
<svg width="500" height="500" viewBox="0 0 500 500" xmlns="http://www.w3.org/2000/svg">
    <clipPath id="clipPath1">
        <path d="M 0 0.088568 L 499.911469 0.088568 L 499.911469 500.000006 L 0 500.000006 Z"/>
    </clipPath>
    <g id="Group" clip-path="url(#clipPath1)">
        <clipPath id="clipPath2">
            <path d="M 249.953125 0.088568 L 298.473969 68.968756 L 374.932281 33.578131 L 382.515625 117.484381 L 466.421875 125.067725 L 431.03125 201.526068 L 499.911469 250.046881 L 431.03125 298.562506 L 466.421875 375.020834 L 382.515625 382.60417 L 374.932281 466.51042 L 298.473969 431.125006 L 249.953125 500.000006 L 201.432297 431.125006 L 124.979164 466.51042 L 117.395836 382.60417 L 33.489582 375.020834 L 68.875 298.562506 L 0 250.046881 L 68.875 201.526068 L 33.489582 125.067725 L 117.395836 117.484381 L 124.979164 33.578131 L 201.432297 68.968756 Z"/>
        </clipPath>
        <g id="g1" clip-path="url(#clipPath2)">
            <path id="Path" fill="#ffffff" stroke="none" d="M 0 0.088562 L 499.911469 0.088562 L 499.911469 500 L 0 500 Z"/>
        </g>
    </g>
    <clipPath id="clipPath3">
        <path d="M 47.770832 47.770859 L 452.229145 47.770859 L 452.229145 452.229172 L 47.770832 452.229172 Z"/>
    </clipPath>
    <g id="g2" clip-path="url(#clipPath3)">
        <clipPath id="clipPath4">
            <path d="M 250.000004 47.770859 L 289.255222 103.494797 L 351.114582 74.864609 L 357.249989 142.749985 L 425.135395 148.885422 L 396.505207 210.744812 L 452.229145 250 L 396.505207 289.255219 L 425.135395 351.114594 L 357.249989 357.25 L 351.114582 425.135422 L 289.255222 396.505211 L 250.000004 452.229172 L 210.744801 396.505211 L 148.885426 425.135422 L 142.750004 357.25 L 74.864586 351.114594 L 103.494789 289.255219 L 47.770832 250 L 103.494789 210.744812 L 74.864586 148.885422 L 142.750004 142.749985 L 148.885426 74.864609 L 210.744801 103.494797 Z"/>
        </clipPath>
        <g id="g3" clip-path="url(#clipPath4)">
            <path id="path1" fill="#222222" stroke="none" d="M 47.770832 47.770844 L 452.229156 47.770844 L 452.229156 452.229187 L 47.770832 452.229187 Z"/>
        </g>
    </g>
    <g id="g4">
        <g id="g5">
            <g id="g6">
                <path id="path2" fill="#ffffff" stroke="none" d="M 137.690277 305.768372 L 137.690277 295.685059 L 166.002777 295.685059 L 166.002777 216.372559 L 164.377777 215.935059 C 159.778824 218.216309 155.752777 219.955902 152.294449 221.164215 C 148.846527 222.362152 144.429871 223.528809 139.044449 224.664215 L 139.044449 213.455902 C 144.388199 212.320465 149.674652 210.784027 154.898621 208.851715 C 160.117371 206.909027 164.862152 204.638184 169.127777 202.039215 L 177.919449 202.039215 L 177.919449 295.685059 L 203.252777 295.685059 L 203.252777 305.768372 Z"/>
            </g>
        </g>
    </g>
    <g id="g7">
        <g id="g8">
            <g id="g9">
                <path id="path3" fill="#ffffff" stroke="none" d="M 213.904449 301.018372 C 213.904449 295.299652 214.529449 290.685059 215.779449 287.185059 C 217.029449 283.685059 219.164856 280.424622 222.196121 277.393372 C 225.222153 274.367371 230.050278 270.435059 236.675278 265.601746 L 248.091949 257.310059 C 252.300278 254.22673 255.727371 251.388184 258.383606 248.78923 C 261.034668 246.19548 263.123199 243.372559 264.654449 240.330902 C 266.196106 237.278809 266.966949 233.851715 266.966949 230.060059 C 266.966949 223.909027 265.331543 219.278809 262.071106 216.164215 C 258.805481 213.039215 253.701324 211.476715 246.758621 211.476715 C 241.269028 211.476715 236.394028 212.757965 232.133621 215.310059 C 227.867996 217.86734 224.466949 221.487152 221.925278 226.164215 L 220.279449 226.435059 L 212.966949 218.789215 C 216.466949 213.112152 221.060699 208.653809 226.758621 205.414215 C 232.466949 202.164215 239.133621 200.539215 246.758621 200.539215 C 254.133621 200.539215 260.248199 201.799652 265.112793 204.310059 C 269.987793 206.810059 273.581543 210.278809 275.904449 214.705902 C 278.222168 219.122559 279.383606 224.24234 279.383606 230.060059 C 279.383606 234.700684 278.409668 239.034027 276.466949 243.060059 C 274.534668 247.075684 271.789856 250.862137 268.237793 254.41423 C 264.696106 257.955872 260.248199 261.685059 254.904449 265.601746 L 243.341949 274.060059 C 239.034653 277.226746 235.722153 279.924622 233.404449 282.143372 C 231.081528 284.367371 229.388824 286.533997 228.321121 288.643372 C 227.263824 290.742371 226.737778 293.091309 226.737778 295.685059 L 279.383606 295.685059 L 279.383606 305.768372 L 213.904449 305.768372 Z"/>
            </g>
        </g>
    </g>
    <g id="g10">
        <g id="g11">
            <g id="g12">
                <path id="path4" fill="#ffffff" stroke="none" d="M 364.031036 202.039215 L 364.031036 212.101715 L 315.281036 212.101715 L 315.281036 249.85173 L 359.135193 249.85173 L 359.135193 259.997559 L 315.281036 259.997559 L 315.281036 305.768372 L 303.093536 305.768372 L 303.093536 202.039215 Z"/>
            </g>
        </g>
    </g>
</svg>
