<svg xmlns="http://www.w3.org/2000/svg" xmlns:xlink="http://www.w3.org/1999/xlink" width="500" zoomAndPan="magnify" viewBox="0 0 375 374.999991" height="500" preserveAspectRatio="xMidYMid meet" version="1.0"><defs><g/><clipPath id="7df2bc9aa5"><path d="M 0 0.0664062 L 374.933594 0.0664062 L 374.933594 375 L 0 375 Z M 0 0.0664062 " clip-rule="nonzero"/></clipPath><clipPath id="8a9f392708"><path d="M 187.464844 0.0664062 L 223.855469 51.726562 L 281.199219 25.183594 L 286.886719 88.113281 L 349.816406 93.800781 L 323.273438 151.144531 L 374.933594 187.535156 L 323.273438 223.921875 L 349.816406 281.265625 L 286.886719 286.953125 L 281.199219 349.882812 L 223.855469 323.34375 L 187.464844 375 L 151.074219 323.34375 L 93.734375 349.882812 L 88.046875 286.953125 L 25.117188 281.265625 L 51.65625 223.921875 L 0 187.535156 L 51.65625 151.144531 L 25.117188 93.800781 L 88.046875 88.113281 L 93.734375 25.183594 L 151.074219 51.726562 Z M 187.464844 0.0664062 " clip-rule="nonzero"/></clipPath><clipPath id="3a185b4e19"><path d="M 35.828125 35.828125 L 339.171875 35.828125 L 339.171875 339.171875 L 35.828125 339.171875 Z M 35.828125 35.828125 " clip-rule="nonzero"/></clipPath><clipPath id="079f30e7a3"><path d="M 187.5 35.828125 L 216.941406 77.621094 L 263.335938 56.148438 L 267.9375 107.0625 L 318.851562 111.664062 L 297.378906 158.058594 L 339.171875 187.5 L 297.378906 216.941406 L 318.851562 263.335938 L 267.9375 267.9375 L 263.335938 318.851562 L 216.941406 297.378906 L 187.5 339.171875 L 158.058594 297.378906 L 111.664062 318.851562 L 107.0625 267.9375 L 56.148438 263.335938 L 77.621094 216.941406 L 35.828125 187.5 L 77.621094 158.058594 L 56.148438 111.664062 L 107.0625 107.0625 L 111.664062 56.148438 L 158.058594 77.621094 Z M 187.5 35.828125 " clip-rule="nonzero"/></clipPath></defs><g clip-path="url(#7df2bc9aa5)"><g clip-path="url(#8a9f392708)"><path fill="#ffffff" d="M 0 0.0664062 L 374.933594 0.0664062 L 374.933594 375 L 0 375 Z M 0 0.0664062 " fill-opacity="1" fill-rule="nonzero"/></g></g><g clip-path="url(#3a185b4e19)"><g clip-path="url(#079f30e7a3)"><path fill="#222222" d="M 35.828125 35.828125 L 339.171875 35.828125 L 339.171875 339.171875 L 35.828125 339.171875 Z M 35.828125 35.828125 " fill-opacity="1" fill-rule="nonzero"/></g></g><g fill="#ffffff" fill-opacity="1"><g transform="translate(97.736461, 229.326291)"><g><path d="M 5.53125 0 L 5.53125 -7.5625 L 26.765625 -7.5625 L 26.765625 -67.046875 L 25.546875 -67.375 C 22.097656 -65.664062 19.078125 -64.359375 16.484375 -63.453125 C 13.898438 -62.554688 10.585938 -61.679688 6.546875 -60.828125 L 6.546875 -69.234375 C 10.554688 -70.085938 14.519531 -71.238281 18.4375 -72.6875 C 22.351562 -74.144531 25.910156 -75.847656 29.109375 -77.796875 L 35.703125 -77.796875 L 35.703125 -7.5625 L 54.703125 -7.5625 L 54.703125 0 Z M 5.53125 0 "/></g></g></g><g fill="#ffffff" fill-opacity="1"><g transform="translate(155.740836, 229.326291)"><g><path d="M 4.6875 -3.5625 C 4.6875 -7.851562 5.15625 -11.3125 6.09375 -13.9375 C 7.03125 -16.5625 8.632812 -19.007812 10.90625 -21.28125 C 13.175781 -23.550781 16.796875 -26.5 21.765625 -30.125 L 30.328125 -36.34375 C 33.484375 -38.65625 36.054688 -40.785156 38.046875 -42.734375 C 40.035156 -44.679688 41.601562 -46.796875 42.75 -49.078125 C 43.90625 -51.367188 44.484375 -53.9375 44.484375 -56.78125 C 44.484375 -61.394531 43.257812 -64.867188 40.8125 -67.203125 C 38.363281 -69.546875 34.535156 -70.71875 29.328125 -70.71875 C 25.210938 -70.71875 21.554688 -69.757812 18.359375 -67.84375 C 15.160156 -65.925781 12.609375 -63.210938 10.703125 -59.703125 L 9.46875 -59.5 L 3.984375 -65.234375 C 6.609375 -69.492188 10.054688 -72.835938 14.328125 -75.265625 C 18.609375 -77.703125 23.609375 -78.921875 29.328125 -78.921875 C 34.859375 -78.921875 39.445312 -77.976562 43.09375 -76.09375 C 46.75 -74.21875 49.445312 -71.617188 51.1875 -68.296875 C 52.925781 -64.984375 53.796875 -61.144531 53.796875 -56.78125 C 53.796875 -53.300781 53.066406 -50.050781 51.609375 -47.03125 C 50.160156 -44.019531 48.101562 -41.179688 45.4375 -38.515625 C 42.78125 -35.859375 39.445312 -33.0625 35.4375 -30.125 L 26.765625 -23.78125 C 23.535156 -21.40625 21.050781 -19.382812 19.3125 -17.71875 C 17.570312 -16.050781 16.300781 -14.425781 15.5 -12.84375 C 14.707031 -11.269531 14.3125 -9.507812 14.3125 -7.5625 L 53.796875 -7.5625 L 53.796875 0 L 4.6875 0 Z M 4.6875 -3.5625 "/></g></g></g><g fill="#ffffff" fill-opacity="1"><g transform="translate(215.554522, 229.326291)"><g><path d="M 57.46875 -77.796875 L 57.46875 -70.25 L 20.90625 -70.25 L 20.90625 -41.9375 L 53.796875 -41.9375 L 53.796875 -34.328125 L 20.90625 -34.328125 L 20.90625 0 L 11.765625 0 L 11.765625 -77.796875 Z M 57.46875 -77.796875 "/></g></g></g></svg>